<svg width="20" height="20" viewBox="0 0 20 20" fill="none" xmlns="http://www.w3.org/2000/svg">
<path d="M6.48438 0H2.92969C1.31426 0 0 1.31426 0 2.92969V6.48438C0 8.0998 1.31426 9.41406 2.92969 9.41406H6.48438C8.0998 9.41406 9.41406 8.0998 9.41406 6.48438V2.92969C9.41406 1.31426 8.0998 0 6.48438 0ZM8.24219 6.48438C8.24219 7.45363 7.45363 8.24219 6.48438 8.24219H2.92969C1.96043 8.24219 1.17188 7.45363 1.17188 6.48438V2.92969C1.17188 1.96043 1.96043 1.17188 2.92969 1.17188H6.48438C7.45363 1.17188 8.24219 1.96043 8.24219 2.92969V6.48438Z" fill="#3C79F3"/>
<path d="M17.0703 10.5859H13.5156C11.9002 10.5859 10.5859 11.9002 10.5859 13.5156V17.0703C10.5859 18.6857 11.9002 20 13.5156 20H17.0703C18.6857 20 20 18.6857 20 17.0703V13.5156C20 11.9002 18.6857 10.5859 17.0703 10.5859ZM18.8281 17.0703C18.8281 18.0396 18.0396 18.8281 17.0703 18.8281H13.5156C12.5464 18.8281 11.7578 18.0396 11.7578 17.0703V13.5156C11.7578 12.5464 12.5464 11.7578 13.5156 11.7578H17.0703C18.0396 11.7578 18.8281 12.5464 18.8281 13.5156V17.0703Z" fill="#3C79F3"/>
<path d="M17.0703 0H13.5156C11.9002 0 10.5859 1.31426 10.5859 2.92969V6.48438C10.5859 8.74598 8.74598 10.5859 6.48438 10.5859H2.92969C1.31426 10.5859 0 11.9002 0 13.5156V17.0703C0 18.6857 1.31426 20 2.92969 20H6.48438C8.0998 20 9.41406 18.6857 9.41406 17.0703V13.5156C9.41406 11.254 11.254 9.41406 13.5156 9.41406H17.0703C18.6857 9.41406 20 8.0998 20 6.48438V2.92969C20 1.31426 18.6857 0 17.0703 0ZM8.24219 13.5156V17.0703C8.24219 18.0396 7.45363 18.8281 6.48438 18.8281H2.92969C1.96043 18.8281 1.17188 18.0396 1.17188 17.0703V13.5156C1.17188 12.5464 1.96043 11.7578 2.92969 11.7578H6.48438C7.29793 11.7578 8.06906 11.5726 8.75781 11.2422C8.42738 11.9309 8.24219 12.7021 8.24219 13.5156ZM18.8281 6.48438C18.8281 7.45363 18.0396 8.24219 17.0703 8.24219H13.5156C12.7021 8.24219 11.9309 8.42738 11.2422 8.75781C11.5726 8.06906 11.7578 7.29793 11.7578 6.48438V2.92969C11.7578 1.96043 12.5464 1.17188 13.5156 1.17188H17.0703C18.0396 1.17188 18.8281 1.96043 18.8281 2.92969V6.48438Z" fill="#3C79F3"/>
</svg>
