<svg width="20" height="20" viewBox="0 0 20 20" fill="none" xmlns="http://www.w3.org/2000/svg">
<g clip-path="url(#clip0)">
<path d="M19.3745 9.37545H11.458C11.113 9.37545 10.833 9.09546 10.833 8.75047C10.833 8.40548 11.113 8.12549 11.458 8.12549H19.3745C19.7195 8.12549 19.9994 8.40548 19.9994 8.75047C19.9994 9.09546 19.7195 9.37545 19.3745 9.37545Z" fill="#3C79F3"/>
<path d="M16.2496 12.5003C16.0895 12.5003 15.9296 12.4394 15.8079 12.317C15.5637 12.0727 15.5637 11.6769 15.8079 11.4328L18.4912 8.74963L15.8079 6.0663C15.5637 5.82217 15.5637 5.42637 15.8079 5.18224C16.0521 4.93795 16.4479 4.93795 16.6921 5.18224L19.817 8.30714C20.0611 8.55127 20.0611 8.94707 19.817 9.19121L16.6921 12.3161C16.5696 12.4394 16.4096 12.5003 16.2496 12.5003Z" fill="#3C79F3"/>
<path d="M6.66651 20.0011C6.48814 20.0011 6.31892 19.9761 6.14986 19.9236L1.13491 18.2528C0.452562 18.0145 0 17.3786 0 16.6679V1.66838C0 0.749214 0.747505 0.00170898 1.66667 0.00170898C1.84488 0.00170898 2.0141 0.0267326 2.18331 0.0792213L7.19811 1.75001C7.88061 1.98834 8.33302 2.62416 8.33302 3.33489V18.3344C8.33302 19.2536 7.58567 20.0011 6.66651 20.0011ZM1.66667 1.25167C1.43749 1.25167 1.24996 1.4392 1.24996 1.66838V16.6679C1.24996 16.8454 1.36913 17.0103 1.53911 17.0695L6.53056 18.7328C6.56641 18.7444 6.6131 18.7511 6.66651 18.7511C6.89569 18.7511 7.08306 18.5636 7.08306 18.3344V3.33489C7.08306 3.15743 6.96389 2.99249 6.79392 2.93329L1.80246 1.26998C1.76661 1.25838 1.71992 1.25167 1.66667 1.25167Z" fill="#3C79F3"/>
<path d="M12.7079 6.66724C12.363 6.66724 12.083 6.38725 12.083 6.04226V2.29238C12.083 1.71821 11.6156 1.25069 11.0414 1.25069H1.66673C1.32174 1.25069 1.04175 0.970703 1.04175 0.625713C1.04175 0.280722 1.32174 0.000732422 1.66673 0.000732422H11.0414C12.3056 0.000732422 13.3329 1.02823 13.3329 2.29238V6.04226C13.3329 6.38725 13.0529 6.66724 12.7079 6.66724Z" fill="#3C79F3"/>
<path d="M11.0413 17.5H7.70799C7.363 17.5 7.08301 17.22 7.08301 16.875C7.08301 16.53 7.363 16.25 7.70799 16.25H11.0413C11.6155 16.25 12.0828 15.7825 12.0828 15.2084V11.4585C12.0828 11.1135 12.3628 10.8335 12.7078 10.8335C13.0528 10.8335 13.3328 11.1135 13.3328 11.4585V15.2084C13.3328 16.4725 12.3055 17.5 11.0413 17.5Z" fill="#3C79F3"/>
</g>
<defs>
<clipPath id="clip0">
<rect width="20" height="20" fill="white"/>
</clipPath>
</defs>
</svg>
